<svg width="12" height="14" viewBox="0 0 12 14" fill="none" xmlns="http://www.w3.org/2000/svg">
<path d="M6.00004 2.33366C7.50293 2.33366 8.94427 2.93068 10.007 3.99339C11.0697 5.05609 11.6667 6.49743 11.6667 8.00033C11.6667 9.50322 11.0697 10.9446 10.007 12.0073C8.94427 13.07 7.50293 13.667 6.00004 13.667C4.49715 13.667 3.05581 13.07 1.9931 12.0073C0.930396 10.9446 0.333374 9.50322 0.333374 8.00033C0.333374 6.49743 0.930396 5.05609 1.9931 3.99339C3.05581 2.93068 4.49715 2.33366 6.00004 2.33366ZM6.00004 4.33366C5.87922 4.33366 5.76248 4.37742 5.67142 4.45684C5.58036 4.53625 5.52114 4.64596 5.50471 4.76566L5.50004 4.83366V7.83366L5.50471 7.90166C5.52117 8.02133 5.58041 8.131 5.67147 8.21039C5.76252 8.28977 5.87924 8.33351 6.00004 8.33351C6.12084 8.33351 6.23756 8.28977 6.32862 8.21039C6.41967 8.131 6.47891 8.02133 6.49537 7.90166L6.50004 7.83366V4.83366L6.49537 4.76566C6.47894 4.64596 6.41972 4.53625 6.32866 4.45684C6.2376 4.37742 6.12087 4.33366 6.00004 4.33366ZM10.78 2.41566L10.8347 2.45633L11.6007 3.12299C11.6967 3.2061 11.7575 3.32262 11.7707 3.4489C11.7839 3.57519 11.7486 3.70177 11.6719 3.80297C11.5953 3.90418 11.4829 3.97241 11.3578 3.99383C11.2326 4.01526 11.104 3.98826 10.998 3.91833L10.944 3.87766L10.178 3.21099C10.0829 3.1277 10.0228 3.01145 10.0099 2.88564C9.99707 2.75983 10.0323 2.63382 10.1087 2.53299C10.185 2.43215 10.2967 2.36399 10.4213 2.34222C10.5458 2.32044 10.674 2.34669 10.78 2.41566ZM7.50004 0.666992C7.62672 0.667031 7.74867 0.715155 7.84124 0.801641C7.9338 0.888126 7.99009 1.00652 7.99872 1.13291C8.00736 1.2593 7.9677 1.38425 7.88775 1.48252C7.80781 1.5808 7.69354 1.64506 7.56804 1.66233L7.50004 1.66699H4.50004C4.37336 1.66695 4.25141 1.61883 4.15885 1.53234C4.06628 1.44586 4.00999 1.32746 4.00136 1.20107C3.99272 1.07468 4.03238 0.949731 4.11233 0.85146C4.19227 0.753188 4.30654 0.688926 4.43204 0.671659L4.50004 0.666992H7.50004Z" fill="white"/>
</svg>
