<svg width="40" height="40" viewBox="0 0 40 40" fill="none" xmlns="http://www.w3.org/2000/svg">
<path fill-rule="evenodd" clip-rule="evenodd" d="M19.9997 36.6663C29.2044 36.6663 36.6663 29.2044 36.6663 19.9997C36.6663 10.7949 29.2044 3.33301 19.9997 3.33301C10.7949 3.33301 3.33301 10.7949 3.33301 19.9997C3.33301 29.2044 10.7949 36.6663 19.9997 36.6663Z" stroke="white" stroke-width="2" stroke-linecap="round" stroke-linejoin="round"/>
<path fill-rule="evenodd" clip-rule="evenodd" d="M15.4499 10.9082H24.5499C27.0565 10.9082 29.0899 12.9399 29.0899 15.4499V24.5499C29.0899 27.0565 27.0582 29.0899 24.5482 29.0899H15.4499C12.9415 29.0899 10.9082 27.0582 10.9082 24.5482V15.4499C10.9082 12.9415 12.9415 10.9082 15.4499 10.9082Z" stroke="white" stroke-width="2" stroke-linecap="round" stroke-linejoin="round"/>
<path d="M25.0003 14.917C24.9537 14.917 24.917 14.9553 24.917 15.0003C24.917 15.0453 24.9537 15.0837 25.0003 15.0837C25.047 15.0837 25.0837 15.047 25.0837 15.0003C25.0837 14.9553 25.0453 14.917 25.0003 14.917" stroke="white" stroke-width="2" stroke-linecap="round" stroke-linejoin="round"/>
<path d="M22.3566 17.6432C23.6582 18.9449 23.6582 21.0549 22.3566 22.3566C21.0549 23.6582 18.9449 23.6582 17.6432 22.3566C16.3416 21.0549 16.3416 18.9449 17.6432 17.6432C18.9449 16.3416 21.0549 16.3416 22.3566 17.6432" stroke="white" stroke-width="2" stroke-linecap="round" stroke-linejoin="round"/>
</svg>
