<svg width="14" height="12" viewBox="0 0 14 12" fill="none" xmlns="http://www.w3.org/2000/svg">
<path d="M4.42854 6.00028C4.76622 6.00028 5.1006 5.93377 5.41258 5.80454C5.72456 5.67531 6.00803 5.4859 6.24681 5.24712C6.48559 5.00835 6.675 4.72487 6.80423 4.41289C6.93345 4.10091 6.99997 3.76654 6.99997 3.42885C6.99997 3.09117 6.93345 2.75679 6.80423 2.44481C6.675 2.13283 6.48559 1.84935 6.24681 1.61058C6.00803 1.3718 5.72456 1.18239 5.41258 1.05316C5.1006 0.923934 4.76622 0.857422 4.42854 0.857422C3.74655 0.857422 3.0925 1.12834 2.61026 1.61058C2.12803 2.09281 1.85711 2.74687 1.85711 3.42885C1.85711 4.11084 2.12803 4.76489 2.61026 5.24712C3.0925 5.72936 3.74655 6.00028 4.42854 6.00028ZM8.77139 10.354C9.20739 10.4883 9.75082 10.5717 10.4285 10.5717C13.8571 10.5717 13.8571 8.42885 13.8571 8.42885C13.8571 8.08786 13.7217 7.76083 13.4805 7.51971C13.2394 7.27859 12.9124 7.14314 12.5714 7.14314H8.76797C9.10008 7.48869 9.28525 7.94957 9.28454 8.42885V8.74599L9.28282 8.79342C9.2707 8.98427 9.24124 9.17362 9.19482 9.35914C9.10657 9.71058 8.96389 10.0461 8.77197 10.3534L8.77139 10.354ZM12.4285 4.00028C12.4285 4.26292 12.3768 4.52299 12.2763 4.76565C12.1758 5.0083 12.0285 5.22878 11.8428 5.41449C11.657 5.60021 11.4366 5.74753 11.1939 5.84804C10.9513 5.94855 10.6912 6.00028 10.4285 6.00028C10.1659 6.00028 9.90582 5.94855 9.66317 5.84804C9.42052 5.74753 9.20004 5.60021 9.01432 5.41449C8.82861 5.22878 8.68129 5.0083 8.58078 4.76565C8.48027 4.52299 8.42854 4.26292 8.42854 4.00028C8.42854 3.46985 8.63925 2.96114 9.01432 2.58607C9.3894 2.21099 9.8981 2.00028 10.4285 2.00028C10.959 2.00028 11.4677 2.21099 11.8428 2.58607C12.2178 2.96114 12.4285 3.46985 12.4285 4.00028ZM0.142822 8.42885C0.142822 8.08786 0.278281 7.76083 0.519399 7.51971C0.760517 7.27859 1.08754 7.14314 1.42854 7.14314H7.42854C7.76953 7.14314 8.09656 7.27859 8.33767 7.51971C8.57879 7.76083 8.71425 8.08786 8.71425 8.42885V8.71456C8.71425 8.71456 8.71425 11.7146 4.42854 11.7146C0.142822 11.7146 0.142822 8.71456 0.142822 8.71456V8.42885Z" fill="white"/>
</svg>
